# xmcd CD database file
#
# Track frame offsets:
#	150
#	10505
#	26475
#	38332
#	47935
#	62170
#	72565
#	86840
#	100927
#	111125
#	129382
#	140387
#	153225
#	167090
#	183295
#	194820
#
# Disc length: 2737 seconds
#
# Revision: 0
# Processed by: cddbd v1.4PL0 Copyright (c) Steve Scherf et al.
# Submitted via: Feurio! 1.64 - http://www.feurio.com
#
DISCID=d60aaf10
DTITLE=Various Artist - Take me home, country roads [CD2)
DYEAR=1994
DGENRE=Disco-International-Kiste
TTITLE0=Bobby Bare - Help me make it through the night
TTITLE1=Karen O'Donnell - I know what it's all about now, Mama
TTITLE2=Dave Dudley - Six days on the road
TTITLE3=Norville Dollar - Take my heart along
TTITLE4=Freddy Quinn - Take me home, country roads
TTITLE5=Bud Logan - I was on my way
TTITLE6=Ferlin Husky - Little Tom
TTITLE7=George Kent - Doogie Ray
TTITLE8=Bobby Bare - West Virginia Woman
TTITLE9=Dave Dudley - Rooster Hill
TTITLE10=Freddy Quinn - Tom Dooley
TTITLE11=Bobby Lord - Looking for a cold lonely winter
TTITLE12=Ronnie Rogers - Diane (Do the wrong again with me)
TTITLE13=Rick Pilgreen - If I had a chance
TTITLE14=Barbara Perry - I'll hold you closer than love
TTITLE15=Freddy Quinn - The yellow rose of Texas
EXTD=BMG Ariola -1994
EXTT0=
EXTT1=
EXTT2=
EXTT3=
EXTT4=
EXTT5=
EXTT6=
EXTT7=
EXTT8=
EXTT9=
EXTT10=
EXTT11=
EXTT12=
EXTT13=
EXTT14=
EXTT15=
PLAYORDER=
